HIERARCHY
ROOT Hips
{
	OFFSET 0.00 0.00 0.00
	CHANNELS 6 Xposition Yposition Zposition Xrotation Yrotation Zrotation
	JOINT Spine
	{
		OFFSET 0.00000 0.84964 1.27446
		CHANNELS 3 Xrotation Yrotation Zrotation
		JOINT Spine1
		{
			OFFSET 0.00000 0.29508 1.67346
			CHANNELS 3 Xrotation Yrotation Zrotation
			JOINT Spine2
			{
				OFFSET 0.00000 0.14810 1.69281
				CHANNELS 3 Xrotation Yrotation Zrotation
				JOINT Spine3
				{
					OFFSET 0.00000 0.00000 1.69928
					CHANNELS 3 Xrotation Yrotation Zrotation
					JOINT Neck
					{
						OFFSET 0.00000 -0.63723 4.46061
						CHANNELS 3 Xrotation Yrotation Zrotation
						JOINT Head
						{
							OFFSET 0.00000 -0.40573 2.30101
							CHANNELS 3 Xrotation Yrotation Zrotation
							End Site
							{
								OFFSET 0.00000 0.00000 2.75071
							}
						}
					}
					JOINT RightShoulder
					{
						OFFSET -0.72014 -1.20022 3.88874
						CHANNELS 3 Xrotation Yrotation Zrotation
						JOINT RightArm
						{
							OFFSET -3.57668 0.00000 0.00000
							CHANNELS 3 Xrotation Yrotation Zrotation
							JOINT RightForeArm
							{
								OFFSET -5.92485 0.00000 0.00000
								CHANNELS 3 Xrotation Yrotation Zrotation
								JOINT RightHand
								{
									OFFSET -6.63013 0.00000 0.00000
									CHANNELS 3 Xrotation Yrotation Zrotation
									JOINT RightHandEnd
									{
										OFFSET -1.65321 0.00000 0.00000
										CHANNELS 3 Xrotation Yrotation Zrotation
										End Site
										{
											OFFSET -1.65321 0.00000 0.00000
										}
									}
									JOINT RightHandThumb1
									{
										OFFSET -0.66129 -1.10214 -0.44086
										CHANNELS 3 Yrotation Xrotation Zrotation
										End Site
										{
											OFFSET -1.59688 -0.42788 0.00000
										}
									}
								}
							}
						}
					}
					JOINT LeftShoulder
					{
						OFFSET 0.72014 -1.20022 3.88874
						CHANNELS 3 Xrotation Yrotation Zrotation
						JOINT LeftArm
						{
							OFFSET 3.57668 0.00000 0.00000
							CHANNELS 3 Xrotation Yrotation Zrotation
							JOINT LeftForeArm
							{
								OFFSET 5.92485 0.00000 0.00000
								CHANNELS 3 Xrotation Yrotation Zrotation
								JOINT LeftHand
								{
									OFFSET 6.63013 0.00000 0.00000
									CHANNELS 3 Xrotation Yrotation Zrotation
									JOINT LeftHandEnd
									{
										OFFSET 1.65321 0.00000 0.00000
										CHANNELS 3 Xrotation Yrotation Zrotation
										End Site
										{
											OFFSET 1.65321 0.00000 0.00000
										}
									}
									JOINT LeftHandThumb1
									{
										OFFSET 0.66129 -1.10214 -0.44086
										CHANNELS 3 Yrotation Xrotation Zrotation
										End Site
										{
											OFFSET 1.59688 -0.42788 0.00000
										}
									}
								}
							}
						}
					}
				}
			}
		}
	}
	JOINT RightUpLeg
	{
		OFFSET -2.13640 0.00000 -0.62412
		CHANNELS 3 Xrotation Yrotation Zrotation
		JOINT RightLeg
		{
			OFFSET 0.00000 0.00000 -11.49360
			CHANNELS 3 Xrotation Yrotation Zrotation
			JOINT RightFoot
			{
				OFFSET 0.00000 0.00000 -8.79036
				CHANNELS 3 Xrotation Yrotation Zrotation
				JOINT RightToeBase
				{
					OFFSET 0.00000 -3.94625 -1.43632
					CHANNELS 3 Xrotation Yrotation Zrotation
					End Site
					{
						OFFSET 0.00000 -1.72833 -0.00000
					}
				}
			}
		}
	}
	JOINT LeftUpLeg
	{
		OFFSET 2.13640 0.00000 -0.62412
		CHANNELS 3 Xrotation Yrotation Zrotation
		JOINT LeftLeg
		{
			OFFSET 0.00000 0.00000 -11.49360
			CHANNELS 3 Xrotation Yrotation Zrotation
			JOINT LeftFoot
			{
				OFFSET 0.00000 0.00000 -8.79036
				CHANNELS 3 Xrotation Yrotation Zrotation
				JOINT LeftToeBase
				{
					OFFSET 0.00000 -3.94625 -1.43632
					CHANNELS 3 Xrotation Yrotation Zrotation
					End Site
					{
						OFFSET 0.00000 -1.72833 -0.00000
					}
				}
			}
		}
	}
}
MOTION
Frames: 10
Frame Time: 0.008342
 -0.1657 -1.8847 23.5103 -15.6622 2.9319 167.5193 -2.9614 -4.6732 1.1379 -0.0539 -3.5707 -0.7176 -11.9648 -0.4691 5.7302 -1.7299 10.0799 -3.0004 -2.4671 3.7539 3.3251 10.9683 -8.3937 4.7642 -0.8020 8.9353 3.3598 11.2067 2.9770 -28.4086 0.0000 0.0000 16.1108 7.7791 -27.9657 -12.9349 -0.0000 -0.0000 0.0000 -0.0000 -0.0000 -0.0000 -5.9533 -18.8040 4.1540 21.2294 8.2203 9.5549 -0.0000 -0.0000 -11.2740 -4.6082 -20.3869 18.9401 -0.0000 0.0000 -0.0000 0.0000 0.0000 -0.0000 -13.9118 -3.3623 -66.9706 1.9754 0.0000 0.0000 -20.7876 2.1026 70.3186 -9.1837 0.0000 -0.0000 -7.0960 3.4076 13.4833 -10.7229 0.0000 -0.0000 -0.6047 -8.2584 -4.1485 -20.6032 0.0000 -0.0000
 -0.1609 -1.8810 23.5186 -15.6607 2.7439 167.4735 -2.9513 -4.8823 1.1160 -0.0569 -3.5750 -0.7181 -11.9352 -0.4883 5.8275 -1.7123 10.1151 -2.9955 -2.4120 3.8035 3.3293 11.0408 -8.4125 4.7289 -0.7572 8.9427 3.4209 11.2434 2.9426 -28.3679 0.0000 0.0000 16.1655 7.7281 -27.9510 -12.9650 0.0000 0.0000 -0.0000 -0.0000 -0.0000 0.0000 -5.9398 -18.7420 4.1615 21.2039 8.1066 9.5416 -0.0000 -0.0000 -11.2913 -4.5679 -20.4325 18.9518 -0.0000 0.0000 -0.0000 0.0000 -0.0000 -0.0000 -13.8593 -3.5570 -67.0016 1.9115 0.0000 0.0000 -20.0716 1.7390 70.1451 -8.5752 0.0000 -0.0000 -7.0668 3.1984 13.5178 -10.6658 0.0000 -0.0000 -0.6431 -8.2401 -4.1560 -20.5842 0.0000 -0.0000
 -0.1543 -1.8762 23.5295 -15.6583 2.4928 167.4150 -2.9356 -5.1571 1.0934 -0.0617 -3.5819 -0.7173 -11.8980 -0.5090 5.9461 -1.6868 10.1557 -2.9924 -2.3415 3.8673 3.3375 11.1347 -8.4338 4.6830 -0.7095 8.9512 3.5027 11.2604 2.9132 -28.3118 0.0000 0.0000 16.2393 7.6647 -27.9290 -13.0105 -0.0000 -0.0000 0.0000 -0.0000 -0.0000 0.0000 -5.9262 -18.6524 4.1691 21.1741 7.9498 9.5320 -0.0000 -0.0000 -11.3215 -4.5079 -20.4801 18.9447 0.0000 -0.0000 0.0000 -0.0000 -0.0000 0.0000 -13.7876 -3.8205 -66.9920 1.8160 0.0000 0.0000 -19.1027 1.2655 69.8731 -7.7488 0.0000 -0.0000 -7.0268 2.9203 13.5781 -10.5926 0.0000 -0.0000 -0.6961 -8.2149 -4.1815 -20.5611 0.0000 -0.0000
 -0.1461 -1.8707 23.5427 -15.6767 2.1901 167.3481 -2.9440 -5.4897 1.0649 -0.0666 -3.5874 -0.7181 -11.8457 -0.5374 6.0867 -1.6579 10.1978 -2.9853 -2.2533 3.9530 3.3455 11.2479 -8.4599 4.6276 -0.6567 8.9534 3.6012 11.2534 2.9074 -28.2443 0.0000 0.0000 16.3300 7.5884 -27.9088 -13.0643 -0.0000 0.0000 0.0000 0.0000 0.0000 -0.0000 -5.9103 -18.5376 4.1715 21.1367 7.7617 9.5211 -0.0000 -0.0000 -11.3593 -4.4286 -20.5334 18.9190 0.0000 -0.0000 0.0000 -0.0000 0.0000 -0.0000 -13.7202 -4.1454 -66.9563 1.6872 0.0000 0.0000 -17.8985 0.6863 69.5287 -6.7164 0.0000 -0.0000 -7.0002 2.5811 13.6620 -10.5062 0.0000 -0.0000 -0.7606 -8.1850 -4.2256 -20.5342 0.0000 -0.0000
 -0.1363 -1.8640 23.5577 -15.6692 1.8359 167.2751 -2.9230 -5.8661 1.0341 -0.0749 -3.5945 -0.7176 -11.7837 -0.5700 6.2389 -1.6252 10.2426 -2.9761 -2.1502 4.0501 3.3537 11.3785 -8.4826 4.5642 -0.6050 8.9673 3.7170 11.2175 2.9011 -28.1566 0.0000 0.0000 16.4307 7.5075 -27.8721 -13.1288 -0.0000 0.0000 0.0000 0.0000 0.0000 0.0000 -5.8901 -18.4067 4.1708 21.0886 7.5464 9.5065 -0.0000 -0.0000 -11.4026 -4.3368 -20.5815 18.8808 0.0000 0.0000 -0.0000 0.0000 0.0000 -0.0000 -13.6064 -4.5221 -66.8956 1.5215 0.0000 0.0000 -16.4958 0.0146 69.1298 -5.5102 0.0000 -0.0000 -6.9321 2.1926 13.7537 -10.4199 0.0000 -0.0000 -0.8293 -8.1505 -4.2760 -20.5026 0.0000 -0.0000
 -0.1253 -1.8566 23.5736 -15.6587 1.4529 167.2043 -2.9050 -6.2666 0.9995 -0.0840 -3.6015 -0.7175 -11.7091 -0.6064 6.3951 -1.5909 10.2838 -2.9620 -2.0339 4.1606 3.3610 11.5219 -8.5016 4.4934 -0.5508 8.9936 3.8439 11.1451 2.8991 -28.0495 0.0000 0.0000 16.5382 7.4236 -27.8204 -13.2013 -0.0000 -0.0000 -0.0000 -0.0000 -0.0000 -0.0000 -5.8682 -18.2653 4.1654 21.0307 7.3164 9.4807 -0.0000 -0.0000 -11.4441 -4.2390 -20.6255 18.8374 -0.0000 -0.0000 0.0000 0.0000 0.0000 0.0000 -13.4754 -4.9303 -66.8123 1.3253 0.0000 0.0000 -14.9535 -0.7216 68.6974 -4.1823 0.0000 -0.0000 -6.8513 1.7736 13.8375 -10.3365 0.0000 -0.0000 -0.8968 -8.1154 -4.3223 -20.4664 0.0000 -0.0000
 -0.1135 -1.8484 23.5898 -15.6216 1.0542 167.1389 -2.8660 -6.6718 0.9651 -0.0966 -3.6064 -0.7182 -11.6213 -0.6441 6.5472 -1.5581 10.3184 -2.9443 -1.9076 4.2769 3.3664 11.6743 -8.5106 4.4178 -0.4994 9.0428 3.9814 11.0391 2.8871 -27.9207 0.0000 0.0000 16.6448 7.3411 -27.7469 -13.2797 -0.0000 -0.0000 0.0000 0.0000 -0.0000 -0.0000 -5.8439 -18.1265 4.1544 20.9597 7.0864 9.4402 -0.0000 -0.0000 -11.4781 -4.1441 -20.6593 18.7953 -0.0000 0.0000 -0.0000 -0.0000 -0.0000 0.0000 -13.3053 -5.3501 -66.7046 1.1048 0.0000 0.0000 -13.3441 -1.4898 68.2506 -2.8011 0.0000 -0.0000 -6.7307 1.3441 13.8954 -10.2685 0.0000 -0.0000 -0.9542 -8.0821 -4.3488 -20.4266 0.0000 -0.0000
 -0.1016 -1.8401 23.6052 -15.5952 0.6713 167.0852 -2.8506 -7.0570 0.9311 -0.1095 -3.6071 -0.7175 -11.5267 -0.6829 6.6871 -1.5238 10.3419 -2.9238 -1.7758 4.3977 3.3684 11.8305 -8.5094 4.3394 -0.4518 9.1136 4.1212 10.9050 2.8663 -27.7700 0.0000 0.0000 16.7463 7.2609 -27.6539 -13.3598 0.0000 0.0000 -0.0000 0.0000 -0.0000 -0.0000 -5.8197 -17.9957 4.1355 20.8738 6.8680 9.3854 -0.0000 -0.0000 -11.5040 -4.0602 -20.6856 18.7654 -0.0000 -0.0000 0.0000 -0.0000 -0.0000 0.0000 -13.1437 -5.7556 -66.5898 0.8721 0.0000 0.0000 -11.7502 -2.2515 67.8221 -1.4488 0.0000 -0.0000 -6.6177 0.9287 13.9167 -10.2161 0.0000 -0.0000 -0.9964 -8.0545 -4.3477 -20.3840 0.0000 -0.0000
 -0.0901 -1.8320 23.6192 -15.5691 0.3191 167.0526 -2.8522 -7.4028 0.8918 -0.1221 -3.6060 -0.7143 -11.4230 -0.7224 6.8092 -1.4919 10.3571 -2.9022 -1.6433 4.5158 3.3670 11.9869 -8.4939 4.2596 -0.4052 9.2166 4.2593 10.7388 2.8205 -27.5965 0.0000 0.0000 16.8386 7.1891 -27.5380 -13.4433 0.0000 -0.0000 -0.0000 -0.0000 -0.0000 0.0000 -5.7971 -17.8815 4.1132 20.7737 6.6693 9.3066 -0.0000 -0.0000 -11.5132 -3.9941 -20.6992 18.7531 0.0000 -0.0000 -0.0000 0.0000 0.0000 0.0000 -12.9854 -6.1241 -66.5200 0.6433 0.0000 0.0000 -10.2548 -2.9747 67.4668 -0.2054 0.0000 -0.0000 -6.5072 0.5482 13.9052 -10.1782 0.0000 -0.0000 -1.0255 -8.0332 -4.3322 -20.3398 0.0000 -0.0000
 -0.0793 -1.8237 23.6311 -15.5046 0.0037 167.0348 -2.8247 -7.6966 0.8596 -0.1399 -3.5985 -0.7115 -11.3124 -0.7592 6.9085 -1.4657 10.3562 -2.8773 -1.5116 4.6288 3.3609 12.1383 -8.4613 4.1800 -0.3624 9.3581 4.3954 10.5539 2.7414 -27.4064 0.0000 0.0000 16.9183 7.1248 -27.4033 -13.5245 0.0000 -0.0000 -0.0000 0.0000 -0.0000 0.0000 -5.7776 -17.7993 4.0818 20.6604 6.5141 9.2014 -0.0000 -0.0000 -11.5023 -3.9541 -20.7066 18.7569 -0.0000 0.0000 -0.0000 -0.0000 0.0000 0.0000 -12.7935 -6.4408 -66.4580 0.4314 0.0000 0.0000 -8.9342 -3.6168 67.1608 0.8540 0.0000 0.0000 -6.3536 0.2173 13.8497 -10.1683 0.0000 -0.0000 -1.0335 -8.0189 -4.2832 -20.2953 0.0000 -0.0000
